<?xml version="1.0" encoding="iso-8859-1"?>
<!-- Generator: Adobe Illustrator 19.0.0, SVG Export Plug-In . SVG Version: 6.00 Build 0)  -->
<svg version="1.1" id="Layer_1" xmlns="http://www.w3.org/2000/svg" xmlns:xlink="http://www.w3.org/1999/xlink" x="0px" y="0px"
	 viewBox="0 0 503.467 503.467" style="enable-background:new 0 0 503.467 503.467;" xml:space="preserve">
<g transform="translate(1 1)">
	<g>
		<path d="M313.148,176.873L295.96,25.453C293.4,10.093,281.453-1,266.093-1h-30.72c-15.36,0-27.307,11.093-29.867,26.453
			l-17.284,151.443c-32.561,8.133-56.956,23.001-56.956,43.97v17.067v204.8v8.533c0,33.28,61.44,51.2,119.467,51.2
			s119.467-17.92,119.467-51.2v-230.4C370.2,199.877,345.757,185,313.148,176.873z M205.507,173.08l17.067-145.92
			c0.853-5.973,5.973-11.093,12.8-11.093h29.867c6.827,0,11.947,5.12,12.8,11.093l17.067,145.92c-2.637-0.4-5.332-0.749-8.051-1.074
			c-11.86-1.55-24.166-2.339-36.323-2.339c-9.44,0-18.968,0.477-28.309,1.415C216.643,171.588,210.977,172.251,205.507,173.08z
			 M148.333,391.533h85.333c5.12,0,8.533-3.413,8.533-8.533s-3.413-8.533-8.533-8.533h-85.333v-25.6H216.6
			c5.12,0,8.533-3.413,8.533-8.533s-3.413-8.533-8.533-8.533h-68.267v-25.6H191c5.12,0,8.533-3.413,8.533-8.533
			s-3.413-8.533-8.533-8.533h-42.667V255H283.16c0.853,0,1.707,0.853,1.707,1.707V423.96c0,0.853-0.853,1.707-1.707,1.707H148.333
			V391.533z M353.133,451.267c0,14.507-39.253,34.133-102.4,34.133s-102.4-19.627-102.4-34.133v-8.533H283.16
			c10.24,0,18.773-8.533,18.773-18.773V256.707c0-10.24-8.533-18.773-18.773-18.773H148.333v-17.067
			c0-9.558,17.042-21.337,46.728-28.262c0.374,0.061,0.735,0.102,1.058,0.102c0.853,0,1.707,0,2.56,0
			c31.573-6.827,72.533-6.827,104.96,0c1.189,0.396,2.558,0.412,3.859,0.158c29.009,6.957,45.635,18.563,45.635,28.002V451.267z"/>
	</g>
</g>
<g>
</g>
<g>
</g>
<g>
</g>
<g>
</g>
<g>
</g>
<g>
</g>
<g>
</g>
<g>
</g>
<g>
</g>
<g>
</g>
<g>
</g>
<g>
</g>
<g>
</g>
<g>
</g>
<g>
</g>
</svg>
