<?xml version="1.0" encoding="iso-8859-1"?>
<!-- Generator: Adobe Illustrator 19.0.0, SVG Export Plug-In . SVG Version: 6.00 Build 0)  -->
<svg version="1.1" id="Layer_1" xmlns="http://www.w3.org/2000/svg" xmlns:xlink="http://www.w3.org/1999/xlink" x="0px" y="0px"
	 viewBox="0 0 510.635 510.635" style="enable-background:new 0 0 510.635 510.635;" xml:space="preserve">
<g transform="translate(1 1)">
	<g>
		<g>
			<path d="M277.101,356.035c-5.12,0-8.533,4.267-8.533,8.533c0,5.12,3.413,8.533,8.533,8.533s8.533-3.413,8.533-8.533
				S282.221,356.035,277.101,356.035z"/>
			<path d="M345.368,356.035c-5.12,0-8.533,4.267-8.533,8.533c0,5.12,3.413,8.533,8.533,8.533c5.12,0,8.533-3.413,8.533-8.533
				S350.488,356.035,345.368,356.035z"/>
			<path d="M311.235,356.035c-5.12,0-8.533,4.267-8.533,8.533c0,5.12,3.413,8.533,8.533,8.533s8.533-3.413,8.533-8.533
				S316.355,356.035,311.235,356.035z"/>
			<path d="M260.035,330.435c-5.12,0-8.533,4.267-8.533,8.533c0,5.12,3.413,8.533,8.533,8.533c5.12,0,8.533-3.413,8.533-8.533
				S265.155,330.435,260.035,330.435z"/>
			<path d="M277.101,304.835c-5.12,0-8.533,4.267-8.533,8.533c0,5.12,3.413,8.533,8.533,8.533s8.533-3.413,8.533-8.533
				C285.635,308.248,282.221,304.835,277.101,304.835z"/>
			<path d="M345.368,304.835c-5.12,0-8.533,4.267-8.533,8.533c0,5.12,3.413,8.533,8.533,8.533c5.12,0,8.533-3.413,8.533-8.533
				C353.901,308.248,350.488,304.835,345.368,304.835z"/>
			<path d="M311.235,304.835c-5.12,0-8.533,4.267-8.533,8.533c0,5.12,3.413,8.533,8.533,8.533s8.533-3.413,8.533-8.533
				C319.768,308.248,316.355,304.835,311.235,304.835z"/>
			<path d="M294.168,330.435c-5.12,0-8.533,4.267-8.533,8.533c0,5.12,3.413,8.533,8.533,8.533c5.12,0,8.533-3.413,8.533-8.533
				S299.288,330.435,294.168,330.435z"/>
			<path d="M328.301,330.435c-5.12,0-8.533,4.267-8.533,8.533c0,5.12,3.413,8.533,8.533,8.533s8.533-3.413,8.533-8.533
				S333.421,330.435,328.301,330.435z"/>
			<path d="M362.435,330.435c-5.12,0-8.533,4.267-8.533,8.533c0,5.12,3.413,8.533,8.533,8.533s8.533-3.413,8.533-8.533
				S367.555,330.435,362.435,330.435z"/>
			<path d="M260.035,296.301c5.12,0,8.533-3.413,8.533-8.533s-3.413-8.533-8.533-8.533c-5.12,0-8.533,4.267-8.533,8.533
				C251.501,292.888,254.915,296.301,260.035,296.301z"/>
			<path d="M277.101,270.701c5.12,0,8.533-3.413,8.533-8.533s-3.413-8.533-8.533-8.533s-8.533,4.267-8.533,8.533
				C268.568,267.288,271.981,270.701,277.101,270.701z"/>
			<path d="M345.368,270.701c5.12,0,8.533-3.413,8.533-8.533s-3.413-8.533-8.533-8.533c-5.12,0-8.533,4.267-8.533,8.533
				C336.835,267.288,340.248,270.701,345.368,270.701z"/>
			<path d="M379.501,304.835c-5.12,0-8.533,4.267-8.533,8.533c0,5.12,3.413,8.533,8.533,8.533s8.533-3.413,8.533-8.533
				C388.035,308.248,384.621,304.835,379.501,304.835z"/>
			<path d="M379.501,253.635c-5.12,0-8.533,4.267-8.533,8.533c0,5.12,3.413,8.533,8.533,8.533s8.533-3.413,8.533-8.533
				S384.621,253.635,379.501,253.635z"/>
			<path d="M311.235,270.701c5.12,0,8.533-3.413,8.533-8.533s-3.413-8.533-8.533-8.533s-8.533,4.267-8.533,8.533
				C302.701,267.288,306.115,270.701,311.235,270.701z"/>
			<path d="M294.168,296.301c5.12,0,8.533-3.413,8.533-8.533s-3.413-8.533-8.533-8.533c-5.12,0-8.533,4.267-8.533,8.533
				C285.635,292.888,289.048,296.301,294.168,296.301z"/>
			<path d="M328.301,296.301c5.12,0,8.533-3.413,8.533-8.533s-3.413-8.533-8.533-8.533s-8.533,4.267-8.533,8.533
				C319.768,292.888,323.181,296.301,328.301,296.301z"/>
			<path d="M362.435,279.235c-5.12,0-8.533,4.267-8.533,8.533c0,5.12,3.413,8.533,8.533,8.533s8.533-3.413,8.533-8.533
				S367.555,279.235,362.435,279.235z"/>
			<path d="M353.901,236.568c0,5.12,3.413,8.533,8.533,8.533s8.533-3.413,8.533-8.533s-3.413-8.533-8.533-8.533
				S353.901,232.301,353.901,236.568z"/>
			<path d="M406.808,221.375v-36.007c0-18.773-15.36-33.28-33.28-33.28h-18.273c-0.49-1.06-0.501-1.997-0.501-2.56
				c0-0.853,0.853-2.56,3.413-3.413c9.387-2.56,16.213-11.093,15.36-21.333c-0.853-10.24-7.68-18.773-17.92-20.48
				c-2.56-0.853-3.413-2.56-3.413-3.413s0-3.413,1.707-5.12c6.827-7.68,7.68-17.92,2.56-26.453s-15.36-11.947-25.6-8.533
				c-1.707,0.853-3.413,0-4.267-0.853s-2.56-1.707-1.707-4.267v-0.853c0.853-7.68-0.853-15.36-6.827-20.48
				c-5.12-5.973-13.653-7.68-21.333-5.12c-0.853,0-0.853,0.853-1.707,0.853l-78.284,44.035L118.381,3.608
				c-9.387-5.12-19.627-5.973-30.72-2.56c-9.387,2.56-17.92,9.387-23.04,18.773s-5.973,19.627-2.56,29.867
				c3.413,10.24,11.093,17.92,20.48,22.187l109.862,52.434l8.751,87.513c0,0.853,0,0.853,0,1.707
				c1.867,5.601,5.555,10.284,10.39,13.077c-23.052,19.246-35.99,47.662-35.99,77.376v111.787c0,52.053,41.813,93.867,93.867,93.867
				h85.333c52.053,0,93.867-41.813,93.867-93.013v-112.64C448.621,271.048,433.495,241.142,406.808,221.375z M388.035,184.515
				v77.653v51.2v18.773c0,8.663-1.938,16.935-5.404,24.387c-0.949-0.317-1.994-0.494-3.129-0.494c-5.12,0-8.533,4.267-8.533,8.533
				c0,2.52,0.83,4.624,2.281,6.113c-3.964,4.42-8.562,8.257-13.661,11.369c-0.496,0.295-0.993,0.59-1.498,0.871
				c-0.098,0.056-0.195,0.113-0.294,0.168c-6.343,3.475-13.426,5.789-20.978,6.67c-0.18-4.889-3.535-8.124-8.516-8.124
				c-5.12,0-8.533,4.267-8.533,8.533h-17.067c0-5.12-3.413-8.533-8.533-8.533c-4.91,0-8.242,3.925-8.507,8.01
				c-2.985-0.398-5.904-1.02-8.738-1.859c-10.561-3.553-19.8-9.873-26.876-18.123c0.933-1.375,1.455-3.104,1.455-5.095
				c0-5.12-3.413-8.533-8.533-8.533c-0.592,0-1.158,0.063-1.701,0.17c-3.834-8.039-5.979-17.063-5.979-26.623v-12.179
				c1.315,2.796,4.07,4.499,7.68,4.499c5.12,0,8.533-3.413,8.533-8.533c0-5.12-3.413-8.533-8.533-8.533
				c-3.61,0-6.365,2.125-7.68,4.872v-43.504c1.315,2.796,4.07,4.499,7.68,4.499c5.12,0,8.533-3.413,8.533-8.533
				s-3.413-8.533-8.533-8.533c-3.61,0-6.365,2.125-7.68,4.872v-32.178v-1.661c0.615-0.545,1.187-1.129,1.707-1.752l0.853-0.853
				c0.882-0.882,1.762-1.304,2.526-1.51c0.873,0.374,1.965,1.329,2.594,3.217c2.56,9.387,11.093,15.36,21.333,15.36
				c0.142-0.012,0.28-0.037,0.422-0.051c0.427,0.025,0.854,0.051,1.285,0.051c0,0,0,0,1.707,0c10.24-0.853,18.773-7.68,20.48-17.92
				c0.595-1.785,1.602-2.728,2.448-3.143c0.905,0.227,1.879,0.643,2.672,1.436c4.865,4.325,10.757,6.244,16.592,5.774
				c4.5,0.36,9.092-0.705,13.274-3.214c8.533-5.12,11.947-15.36,8.533-25.6c-0.853-1.707,0-3.413,0.853-4.267
				c0.444,0,1.12-0.46,2.025-0.783c2.106,0.535,4.247,0.685,6.354,0.503c8.402,0.754,16.858-4.114,20.634-11.667
				c2.148-3.938,2.928-8.024,2.562-11.947h7.678C381.208,168.301,388.035,175.981,388.035,184.515z M78.275,44.568
				c-1.707-5.973-0.853-11.947,1.707-17.067c2.56-5.12,6.827-9.387,12.8-11.093s11.947-0.853,16.213,1.707l96.427,68.267
				l-10.24,19.627L90.221,56.515C84.248,53.955,79.981,50.541,78.275,44.568z M223.341,90.648l78.507-43.52
				c1.707,0,3.413,0.853,4.267,1.707s1.707,1.707,0.853,4.267c-2.56,7.68,0,15.36,5.973,20.48s14.507,6.827,22.187,4.267
				c2.56-1.707,4.267,0.853,5.12,1.707c0.853,0.853,1.707,3.413-0.853,5.973c-5.973,5.973-7.68,13.653-5.12,21.333
				s8.533,12.8,17.067,14.507c2.56,0.853,3.413,3.413,3.413,4.267s0,3.413-4.267,4.267c-6.827,2.56-12.8,8.533-14.507,16.213
				s0.853,15.36,6.827,21.333c2.56,1.707,1.707,4.267,0.853,5.12c0,0.643-0.969,1.769-2.906,1.921
				c-0.42-0.027-0.87-0.092-1.36-0.214c-2.12-0.707-4.237-1.01-6.303-0.972c-5.741-0.167-11.129,2.394-15.03,6.946
				c-5.12,5.973-6.827,14.507-4.267,22.187c0.853,2.56-0.853,4.267-1.707,5.12c-0.369,0.369-1.056,0.736-1.924,0.829
				c-0.972-0.104-2.084-0.57-3.196-1.683c-4.265-4.265-9.401-6.342-14.784-6.257c-2.429-0.066-4.915,0.308-7.402,1.137
				c-7.68,2.56-12.8,8.533-14.507,17.067c-0.795,2.386-3.055,3.279-4.052,3.391c-1.116-0.098-2.935-0.619-3.628-3.391
				c-2.56-6.827-8.533-12.8-16.213-14.507c-0.493-0.109-0.985-0.2-1.478-0.275c-1.499-0.578-2.997-0.579-4.496-0.579
				c-5.973,0-11.947,2.56-14.507,6.827v0.045c-0.287,0.265-0.574,0.529-0.853,0.808v0l0,0c-1.707,0.853-3.413,0.853-4.267,0.853
				s-2.56-0.853-3.413-2.56l-9.387-89.6L223.341,90.648z M431.555,416.621c0,42.667-34.133,76.8-76.8,76.8h-85.333
				c-42.667,0-76.8-34.133-76.8-76.8v-112.64c0-23.04,9.387-45.227,25.6-60.587v85.333c0,8.691,1.416,17.032,3.996,24.832
				c9.208,30.782,37.711,53.675,71.951,53.675h36.693c40.96,0,75.093-33.28,75.947-74.24v-88.706
				c15.679,16.101,24.747,37.068,24.747,59.693V416.621z"/>
			<path d="M278.808,181.955c1.707,2.56,4.267,3.413,6.827,3.413c1.707,0,3.413,0,5.12-0.853c3.413-2.56,4.267-7.68,1.707-11.947
				l-32.427-46.08h59.733c5.12,0,8.533-3.413,8.533-8.533s-3.413-8.533-8.533-8.533h-75.947c-3.413,0-5.973,1.707-7.68,4.267
				c-0.853,2.56-0.853,5.973,0.853,8.533L278.808,181.955z"/>
		</g>
	</g>
</g>
<g>
</g>
<g>
</g>
<g>
</g>
<g>
</g>
<g>
</g>
<g>
</g>
<g>
</g>
<g>
</g>
<g>
</g>
<g>
</g>
<g>
</g>
<g>
</g>
<g>
</g>
<g>
</g>
<g>
</g>
</svg>
