<?xml version="1.0" encoding="iso-8859-1"?>
<!-- Generator: Adobe Illustrator 19.0.0, SVG Export Plug-In . SVG Version: 6.00 Build 0)  -->
<svg version="1.1" id="Layer_1" xmlns="http://www.w3.org/2000/svg" xmlns:xlink="http://www.w3.org/1999/xlink" x="0px" y="0px"
	 viewBox="0 0 512.001 512.001" style="enable-background:new 0 0 512.001 512.001;" xml:space="preserve">
<g>
	<g>
		<path d="M325.288,394.89l-3.874-21.571c-0.691-3.853-4.109-6.63-7.995-6.555c-0.144,0.002-0.289,0.01-0.436,0.019
			c-4.233,0.186-7.608,3.677-7.608,7.956c0,1.165,0.25,2.271,0.7,3.268l3.538,19.698c0.66,3.678-0.162,7.385-2.319,10.437
			c-2.168,3.07-5.411,5.097-9.131,5.709c-13.051,2.148-27.63,3.284-42.163,3.284c-14.568,0-29.179-1.14-42.254-3.299
			c-3.716-0.614-6.957-2.64-9.125-5.705c-2.153-3.045-2.981-6.746-2.326-10.419l10.986-61.763
			c0.979-5.502,5.072-9.844,10.428-11.062c9.716-2.209,20.883-3.377,32.293-3.377c11.301,0,22.387,1.151,32.062,3.329
			c5.359,1.206,9.461,5.542,10.448,11.044l1.51,8.409c0.777,4.329,4.92,7.209,9.246,6.43c4.329-0.777,7.208-4.916,6.43-9.246
			l-1.51-8.407c-2.122-11.822-11.004-21.151-22.627-23.769c-10.804-2.432-23.1-3.717-35.559-3.717
			c-12.58,0-24.968,1.305-35.824,3.773c-11.614,2.64-20.476,11.984-22.58,23.804l-10.986,61.764
			c-1.405,7.898,0.373,15.855,5.005,22.404c4.646,6.569,11.584,10.91,19.534,12.223c13.917,2.298,29.426,3.511,44.848,3.511
			c15.385,0,30.859-1.209,44.749-3.495c7.96-1.31,14.905-5.655,19.552-12.235C324.937,410.768,326.707,402.798,325.288,394.89z"/>
	</g>
</g>
<g>
	<g>
		<path d="M511.264,316.211l-9.164-51.52c-0.77-4.331-4.904-7.217-9.236-6.446c-4.33,0.771-7.216,4.905-6.446,9.235l9.164,51.52
			c2.775,15.598-6.502,30.808-21.576,35.378c-20.556,6.233-46.504,9.665-73.066,9.665c-13.236,0-26.15-0.819-38.476-2.437
			l-4.601-25.624c0.085,0.015,0.168,0.039,0.253,0.053c13.295,2.188,28.104,3.345,42.825,3.345c14.757,0,29.598-1.162,42.918-3.361
			c7.693-1.27,14.405-5.469,18.9-11.827c4.482-6.336,6.201-14.034,4.843-21.677l-10.499-59.026
			c-2.033-11.436-10.609-20.476-21.847-23.032c-10.399-2.365-22.265-3.614-34.315-3.614c-11.932,0-23.71,1.232-34.062,3.561
			c-11.247,2.531-19.841,11.559-21.896,22.997l-7.126,39.687c-2.799-2.339-5.893-4.348-9.246-5.941
			c-4.461-2.118-9.078-3.898-13.768-5.442l8.657-48.211c1.527-8.498,7.032-15.752,14.727-19.406
			c19.252-9.139,41.614-11.91,62.713-11.91c21.009,0,43.735,2.785,63.061,12.077c7.651,3.679,13.118,10.929,14.623,19.396
			l2.13,11.973c0.771,4.331,4.911,7.217,9.236,6.446c4.33-0.771,7.216-4.906,6.446-9.236l-2.13-11.973
			c-2.4-13.494-11.148-25.068-23.404-30.962c-4.215-2.027-8.791-3.833-13.644-5.43V79.168c0-20.514-15.246-38.23-35.463-41.21
			c-13.519-1.992-28.204-1.991-41.718,0.001c-20.217,2.981-35.462,20.697-35.462,41.21V184.48c-4.691,1.543-9.125,3.28-13.221,5.224
			c-6.868,3.261-12.64,8.303-16.831,14.468v-43.015c0-21.282-15.817-39.663-36.792-42.755c-14.106-2.079-29.441-2.079-43.543,0
			c-20.974,3.092-36.791,21.472-36.791,42.755v43.02c-4.191-6.168-9.964-11.211-16.834-14.473c-4.095-1.944-8.53-3.681-13.221-5.224
			V79.169c0-20.513-15.246-38.23-35.461-41.21c-13.513-1.991-28.197-1.992-41.718,0c-20.217,2.981-35.463,20.697-35.463,41.21
			v23.243c0,4.398,3.566,7.964,7.964,7.964c4.398,0,7.964-3.566,7.964-7.964V79.169c0-12.674,9.397-23.617,21.858-25.453
			c11.987-1.766,25.093-1.765,37.073,0c12.46,1.837,21.857,12.78,21.857,25.454c0,0,0,101.076,0,101.078
			c0-0.867-16.144-2.613-17.687-2.781c-7.538-0.82-15.127-1.212-22.709-1.212c-13.542,0-27.129,1.215-40.393,3.988v-45.978
			c0-4.398-3.566-7.964-7.964-7.964s-7.964,3.566-7.964,7.964v50.209c-4.853,1.596-9.428,3.403-13.643,5.429
			c-12.254,5.892-21.004,17.467-23.404,30.96l-16.96,95.349c-4.187,23.537,9.845,46.499,32.637,53.408
			c22.333,6.771,49.197,10.351,77.688,10.351c12.106,0,23.974-0.656,35.419-1.95l-5.554,31.232
			c-4.348,24.444,10.222,48.29,33.893,55.467c23.333,7.074,51.406,10.814,81.182,10.814c8.702,0,17.482-0.339,26.099-1.008
			c4.385-0.34,7.664-4.171,7.323-8.556c-0.341-4.385-4.181-7.667-8.556-7.323c-8.209,0.637-16.576,0.96-24.868,0.96
			c-27.828,0-55.017-3.597-76.56-10.13c-15.953-4.837-25.769-20.931-22.833-37.435c0,0,15.821-88.959,15.822-88.963
			c1.073-6.036,1.55-12.281,4.185-17.906c2.732-5.836,7.376-10.642,13.242-13.462c14.671-7.055,31.072-10.209,47.169-11.793
			c6.298-0.619,12.649-0.88,18.976-0.88c18.083,0,36.408,2.132,53.65,7.736c6.137,1.995,12.72,4.203,17.781,8.343
			c3.764,3.079,6.705,7.17,8.466,11.701c2.004,5.155,1.918,10.753,3.419,16.008c0,0,8.486,47.259,8.488,47.268l7.526,41.91
			c2.969,16.532-6.842,32.651-22.823,37.49c-6.389,1.935-13.347,3.634-20.683,5.052c-4.318,0.835-7.142,5.013-6.307,9.33
			c0.835,4.318,5.012,7.144,9.331,6.307c7.871-1.523,15.366-3.354,22.276-5.447c23.714-7.181,38.281-31.062,33.883-55.548
			l-5.599-31.18c11.479,1.302,23.383,1.962,35.531,1.962c28.491,0,55.355-3.579,77.687-10.351
			C501.42,362.71,515.451,339.75,511.264,316.211z M360.543,79.168c0-12.674,9.397-23.616,21.858-25.453
			c11.98-1.766,25.086-1.767,37.072,0c12.46,1.836,21.858,12.779,21.858,25.453c0,0,0,101.069,0,101.073
			c-0.017-3.489-35.887-3.987-40.392-3.987c-3.525,0-40.396,1.237-40.396,3.991V79.168z M161.03,301.143
			c-0.809,2.079-1.469,4.216-1.963,6.392c-0.762,3.356-1.258,6.787-1.86,10.175c-1.712,1.357-3.722,2.25-5.909,2.61
			c-12.454,2.05-26.368,3.133-40.237,3.133c-13.905,0-27.848-1.088-40.325-3.148c-3.458-0.571-6.474-2.456-8.491-5.308
			c-2.004-2.833-2.771-6.274-2.164-9.691l10.498-59.026c0.91-5.119,4.717-9.158,9.698-10.29c9.26-2.106,19.905-3.218,30.784-3.218
			c10.774,0,21.344,1.097,30.564,3.173c4.982,1.122,8.796,5.154,9.716,10.273l9.806,54.608
			C161.105,300.931,161.071,301.038,161.03,301.143z M174.128,283.002l-7.111-39.601c-2.055-11.438-10.648-20.465-21.895-22.997
			c-10.352-2.33-22.129-3.561-34.062-3.561c-12.049,0-23.914,1.25-34.315,3.614c-11.237,2.555-19.813,11.595-21.848,23.031
			c0,0-10.492,58.99-10.498,59.028c-2.775,15.598,8.157,30.931,23.742,33.502c28.16,4.649,57.575,4.655,85.742,0.016
			c0.022-0.003,0.044-0.01,0.066-0.014l-4.553,25.603c-12.284,1.607-25.151,2.42-38.335,2.42c-26.561,0-52.51-3.432-73.067-9.665
			c-15.075-4.568-24.352-19.777-21.577-35.377l16.959-95.349c1.505-8.466,6.972-15.717,14.623-19.395
			c19.432-9.343,41.704-12.077,63.061-12.077c21.097,0,43.467,2.77,62.712,11.91c7.696,3.654,13.201,10.907,14.726,19.405
			l8.657,48.208C189.084,274.361,180.755,277.541,174.128,283.002z M298.637,267.373c-0.006-3.652-37.822-4.26-42.637-4.26
			c-14.294,0-28.641,1.292-42.634,4.258V161.156c0-13.444,9.968-25.05,23.186-26.998c6.284-0.927,12.828-1.395,19.448-1.395
			c6.62,0,13.164,0.469,19.45,1.396c13.219,1.948,23.187,13.555,23.187,26.998C298.637,161.157,298.637,267.371,298.637,267.373z
			 M354.547,317.525c0,0-1.478-8.228-1.482-8.252c-0.539-2.697-1.24-5.387-2.223-7.959c-0.018-0.046-0.032-0.094-0.05-0.139
			l9.867-54.955c0.92-5.119,4.734-9.152,9.717-10.273c9.221-2.076,19.79-3.173,30.564-3.173c10.879,0,21.524,1.113,30.783,3.218
			c4.981,1.132,8.787,5.171,9.697,10.289l10.499,59.027c0.607,3.416-0.16,6.857-2.165,9.69c-2.017,2.853-5.033,4.738-8.491,5.309
			c-12.476,2.06-26.42,3.148-40.324,3.148c-13.869,0-27.784-1.084-40.238-3.133C358.399,319.943,356.303,318.986,354.547,317.525z"
			/>
	</g>
</g>
<g>
</g>
<g>
</g>
<g>
</g>
<g>
</g>
<g>
</g>
<g>
</g>
<g>
</g>
<g>
</g>
<g>
</g>
<g>
</g>
<g>
</g>
<g>
</g>
<g>
</g>
<g>
</g>
<g>
</g>
</svg>
