<?xml version="1.0" encoding="iso-8859-1"?>
<!-- Generator: Adobe Illustrator 19.0.0, SVG Export Plug-In . SVG Version: 6.00 Build 0)  -->
<svg version="1.1" id="Layer_1" xmlns="http://www.w3.org/2000/svg" xmlns:xlink="http://www.w3.org/1999/xlink" x="0px" y="0px"
	 viewBox="0 0 512 512" style="enable-background:new 0 0 512 512;" xml:space="preserve">
<g>
	<g>
		<path d="M318.473,348.26c-5.999-7.077-14.62-11.28-23.839-11.692c-1.064-1.935-2.318-3.781-3.773-5.498
			c-6.321-7.456-15.553-11.733-25.328-11.733c-3.796,0-7.035,2.746-7.657,6.491l-0.59,3.554c-3.666-5.637-8.31-10.685-13.817-14.865
			c-0.858-6.161-3.431-12.02-7.551-16.88c-6.321-7.456-15.552-11.733-25.328-11.732c-3.796,0-7.035,2.746-7.657,6.491l-7.949,47.906
			c0,0.003,0,0.006-0.001,0.009l-3.824,23.044c-3.646-5.603-8.26-10.623-13.727-14.788c-0.767-6.386-3.377-12.477-7.634-17.499
			c-6.321-7.456-15.554-11.733-25.328-11.733c-3.796,0-7.035,2.746-7.657,6.491l-7.949,47.907c-0.064,0.388-0.088,0.775-0.093,1.162
			l-0.587,3.535c-3.583-5.51-8.099-10.459-13.441-14.581c-0.638-6.675-3.286-13.064-7.72-18.293
			c-6.321-7.456-15.552-11.733-25.328-11.733c-3.796,0-7.035,2.746-7.657,6.491l-2.928,17.643c-0.007,0.041-0.02,0.082-0.026,0.123
			l-24.04,144.886c-0.374,2.25,0.262,4.549,1.737,6.289c1.475,1.74,3.64,2.742,5.921,2.742h60.477h0.012V512h60.462h0.016h60.462
			h0.011h60.477c3.796,0,7.035-2.747,7.657-6.491l21.626-130.344C327.501,365.523,324.794,355.716,318.473,348.26z M267.283,363.959
			l3.053-18.401c0,0,0-0.002,0-0.004l1.577-9.507c2.721,1.052,5.169,2.777,7.105,5.06c2.938,3.466,4.409,7.886,4.168,12.369
			c-0.002,0.031-0.005,0.062-0.007,0.093c-0.036,0.621-0.102,1.244-0.206,1.865l-1.959,11.808h-14.275L267.283,363.959z
			 M216.972,302.616c2.721,1.052,5.169,2.776,7.105,5.059c2.855,3.368,4.307,7.638,4.169,11.989c-0.006,0.19-0.006,0.38-0.019,0.569
			c-0.038,0.589-0.097,1.18-0.195,1.769l-1.959,11.808h-14.275L216.972,302.616z M150.852,336.049
			c2.721,1.052,5.169,2.777,7.105,5.06c2.87,3.385,4.325,7.681,4.169,12.057c-0.007,0.199-0.014,0.397-0.028,0.593
			c-0.038,0.559-0.092,1.119-0.185,1.677l-1.782,10.739l-0.177,1.068h-14.275L150.852,336.049z M83.278,379.459l3.125-18.835
			c0-0.002,0-0.004,0.001-0.006l1.672-10.081c2.721,1.053,5.169,2.776,7.105,5.059c2.906,3.429,4.369,7.791,4.169,12.223
			c-0.007,0.151-0.02,0.296-0.029,0.443c-0.039,0.554-0.092,1.107-0.183,1.661l-0.98,5.904l-0.98,5.904H82.902L83.278,379.459z
			 M121.73,417.323l-13.133,79.153h-44.74l16.462-99.222h23.437c1.186,0,2.318-0.268,3.333-0.752
			c2.232-1.062,3.897-3.166,4.324-5.74l1.225-7.384C120.183,392.785,123.634,405.084,121.73,417.323z M169.07,496.478h-44.726
			l12.641-76.182c0.035-0.209,0.06-0.419,0.092-0.629l6.122-36.9h23.332c3.796,0,7.035-2.747,7.657-6.491l1.339-8.073
			c7.582,9.385,11.067,21.674,9.195,33.934L169.07,496.478z M229.548,496.477h-44.726l15.141-91.246
			c0.046-0.277,0.081-0.555,0.122-0.832l9.136-55.065h23.431c1.424,0,2.769-0.386,3.927-1.067c1.93-1.133,3.342-3.084,3.73-5.425
			l1.416-8.533c7.553,9.407,11.005,21.707,9.094,33.967L229.548,496.477z M310.586,372.626l-20.549,123.853h-44.742l18.867-113.713
			h23.432c3.796,0,7.035-2.747,7.657-6.491l1.518-9.15l1.518-9.15c0-0.001,0-0.002,0-0.002c0.124-0.752,0.214-1.504,0.287-2.254
			c0.019-0.198,0.033-0.395,0.05-0.594c0.049-0.62,0.081-1.239,0.094-1.857c0.002-0.106,0.015-0.21,0.016-0.315
			c3.037,1.011,5.775,2.841,7.896,5.344C309.996,362.269,311.439,367.491,310.586,372.626z"/>
	</g>
</g>
<g>
	<g>
		<path d="M434.743,11.358c-0.011-0.003-0.024-0.007-0.035-0.011l-29.574-9.333c-22.804-7.196-47.208,5.503-54.404,28.307
			l-53.211,168.64c-1.291,4.088,0.978,8.448,5.067,9.737c4.089,1.289,8.448-0.978,9.737-5.067l53.211-168.64
			c4.392-13.918,18.772-21.971,32.756-18.765c-0.04,0.025-0.079,0.054-0.118,0.079c-0.155,0.1-0.306,0.207-0.461,0.309
			c-0.393,0.261-0.786,0.525-1.171,0.798c-0.195,0.139-0.386,0.283-0.58,0.424c-0.338,0.249-0.675,0.501-1.007,0.76
			c-0.203,0.158-0.404,0.321-0.603,0.483c-0.316,0.256-0.628,0.515-0.937,0.78c-0.2,0.171-0.398,0.344-0.594,0.518
			c-0.304,0.271-0.603,0.547-0.9,0.827c-0.187,0.177-0.377,0.353-0.561,0.534c-0.306,0.298-0.604,0.604-0.902,0.912
			c-0.165,0.171-0.332,0.338-0.495,0.512c-0.345,0.369-0.681,0.749-1.014,1.131c-0.105,0.12-0.213,0.236-0.317,0.357
			c-0.433,0.508-0.854,1.028-1.265,1.558c-0.093,0.12-0.18,0.245-0.272,0.366c-0.313,0.412-0.621,0.828-0.919,1.253
			c-0.138,0.196-0.269,0.398-0.405,0.597c-0.243,0.359-0.484,0.72-0.717,1.088c-0.143,0.226-0.28,0.454-0.419,0.683
			c-0.215,0.354-0.426,0.71-0.631,1.07c-0.137,0.239-0.27,0.481-0.403,0.725c-0.198,0.363-0.389,0.73-0.576,1.1
			c-0.124,0.245-0.248,0.491-0.368,0.739c-0.185,0.385-0.363,0.774-0.538,1.165c-0.108,0.242-0.218,0.482-0.323,0.728
			c-0.183,0.432-0.356,0.871-0.527,1.313c-0.082,0.21-0.168,0.417-0.246,0.629c-0.242,0.656-0.473,1.321-0.686,1.995
			l-75.088,237.972c-0.206,0.654-0.394,1.311-0.569,1.969c-0.057,0.214-0.105,0.428-0.158,0.643c-0.111,0.446-0.22,0.892-0.318,1.34
			c-0.055,0.257-0.104,0.513-0.154,0.77c-0.081,0.408-0.158,0.815-0.227,1.225c-0.046,0.272-0.086,0.544-0.127,0.817
			c-0.059,0.397-0.113,0.794-0.161,1.191c-0.033,0.276-0.064,0.553-0.092,0.83c-0.04,0.398-0.073,0.797-0.102,1.195
			c-0.02,0.272-0.04,0.545-0.055,0.818c-0.022,0.413-0.034,0.825-0.044,1.238c-0.006,0.257-0.017,0.512-0.018,0.769
			c-0.003,0.463,0.006,0.926,0.019,1.388c0.005,0.204,0.004,0.408,0.012,0.612c0.026,0.662,0.066,1.324,0.124,1.984
			c0.011,0.128,0.029,0.255,0.041,0.383c0.051,0.534,0.108,1.068,0.179,1.6c0.032,0.24,0.073,0.48,0.11,0.72
			c0.063,0.419,0.128,0.837,0.204,1.254c0.049,0.267,0.105,0.534,0.158,0.8c0.079,0.389,0.159,0.778,0.248,1.166
			c0.063,0.274,0.13,0.547,0.2,0.821c0.095,0.38,0.196,0.759,0.302,1.137c0.077,0.272,0.154,0.544,0.236,0.815
			c0.115,0.381,0.237,0.761,0.363,1.139c0.087,0.262,0.173,0.524,0.265,0.784c0.141,0.397,0.291,0.793,0.443,1.187
			c0.091,0.236,0.178,0.474,0.274,0.709c0.024,0.059,0.044,0.119,0.069,0.178c-13.276-5.41-20.412-20.246-16.024-34.154
			l11.276-35.739c1.291-4.088-0.978-8.448-5.067-9.737c-4.089-1.292-8.448,0.978-9.737,5.067l-11.276,35.739
			c-7.195,22.804,5.505,47.21,28.308,54.405l29.569,9.331c0.012,0.004,0.026,0.008,0.038,0.012
			c4.326,1.365,8.709,2.014,13.022,2.014c18.421,0,35.552-11.842,41.383-30.319l50.743-160.817c1.291-4.088-0.978-8.448-5.067-9.737
			c-4.09-1.292-8.448,0.978-9.737,5.067l-50.743,160.817c-4.62,14.641-20.29,22.793-34.929,18.174
			c-7.092-2.239-12.889-7.104-16.321-13.701c-3.433-6.598-4.091-14.136-1.852-21.228l75.088-237.973
			c4.62-14.64,20.289-22.793,34.93-18.174c14.64,4.62,22.793,20.288,18.174,34.929l-13.869,43.952
			c-1.291,4.088,0.978,8.448,5.067,9.737c4.088,1.292,8.448-0.979,9.737-5.067l13.869-43.952
			C470.244,42.959,457.546,18.553,434.743,11.358z"/>
	</g>
</g>
<g>
</g>
<g>
</g>
<g>
</g>
<g>
</g>
<g>
</g>
<g>
</g>
<g>
</g>
<g>
</g>
<g>
</g>
<g>
</g>
<g>
</g>
<g>
</g>
<g>
</g>
<g>
</g>
<g>
</g>
</svg>
